<?xml version="1.0" encoding="UTF-8" standalone="no"?>
<!-- Created with Inkscape (http://www.inkscape.org/) -->

<svg
   width="12mm"
   height="12mm"
   viewBox="0 0 12 11.999999"
   version="1.1"
   id="svg1"
   xml:space="preserve"
   sodipodi:docname="question-inkscape.svg"
   inkscape:version="1.3 (0e150ed6c4, 2023-07-21)"
   xmlns:inkscape="http://www.inkscape.org/namespaces/inkscape"
   xmlns:sodipodi="http://sodipodi.sourceforge.net/DTD/sodipodi-0.dtd"
   xmlns="http://www.w3.org/2000/svg"
   xmlns:svg="http://www.w3.org/2000/svg"><sodipodi:namedview
     id="namedview1"
     pagecolor="#ffffff"
     bordercolor="#000000"
     borderopacity="0.25"
     inkscape:showpageshadow="2"
     inkscape:pageopacity="0.0"
     inkscape:pagecheckerboard="0"
     inkscape:deskcolor="#d1d1d1"
     inkscape:document-units="mm"
     inkscape:zoom="11.588216"
     inkscape:cx="35.035593"
     inkscape:cy="26.017811"
     inkscape:window-width="1920"
     inkscape:window-height="1009"
     inkscape:window-x="-8"
     inkscape:window-y="-8"
     inkscape:window-maximized="1"
     inkscape:current-layer="layer1"
     showgrid="false" /><defs
     id="defs1" /><g
     inkscape:label="Capa 1"
     inkscape:groupmode="layer"
     id="layer1"
     transform="translate(-78.980036,-139.87797)"><circle
       style="fill:#f1f2f6;fill-opacity:1;stroke-width:0.272664"
       id="path3"
       cx="84.980042"
       cy="145.87796"
       inkscape:export-filename="question.svg"
       inkscape:export-xdpi="96"
       inkscape:export-ydpi="96"
       r="6" /><path
       d="m 84.591637,146.78801 q 0,-0.53578 0.0959,-0.7706 0.0959,-0.23481 0.4068,-0.51263 0.2712,-0.23812 0.41341,-0.41341 0.14221,-0.17528 0.14221,-0.40018 0,-0.2712 -0.1819,-0.44979 -0.1819,-0.1786 -0.50601,-0.1786 -0.33735,0 -0.51263,0.20506 -0.17529,0.20505 -0.24805,0.41672 l -0.6813,-0.29105 q 0.1389,-0.42333 0.50932,-0.73422 0.37042,-0.31088 0.93266,-0.31088 0.69453,0 1.06825,0.38695 0.37373,0.38696 0.37373,0.92935 0,0.33073 -0.14222,0.56555 -0.14221,0.23482 -0.44648,0.53247 -0.32412,0.31089 -0.39357,0.47294 -0.0695,0.16206 -0.0695,0.55232 z m 0.37042,1.5875 q -0.21828,0 -0.37373,-0.15544 -0.15544,-0.15544 -0.15544,-0.37372 0,-0.21829 0.15544,-0.37373 0.15545,-0.15544 0.37373,-0.15544 0.21828,0 0.37372,0.15544 0.15544,0.15544 0.15544,0.37373 0,0.21828 -0.15544,0.37372 -0.15544,0.15544 -0.37372,0.15544 z"
       id="path1-9"
       style="fill:#60668c;fill-opacity:1;stroke-width:0.00661458" /></g></svg>
