<?xml version="1.0" encoding="UTF-8" standalone="no"?>
<!-- Created with Inkscape (http://www.inkscape.org/) -->

<svg
   width="12mm"
   height="12mm"
   viewBox="0 0 12 11.999999"
   version="1.1"
   id="svg1"
   xml:space="preserve"
   sodipodi:docname="settings.svg"
   inkscape:version="1.3 (0e150ed6c4, 2023-07-21)"
   xmlns:inkscape="http://www.inkscape.org/namespaces/inkscape"
   xmlns:sodipodi="http://sodipodi.sourceforge.net/DTD/sodipodi-0.dtd"
   xmlns="http://www.w3.org/2000/svg"
   xmlns:svg="http://www.w3.org/2000/svg"><sodipodi:namedview
     id="namedview1"
     pagecolor="#ffffff"
     bordercolor="#000000"
     borderopacity="0.25"
     inkscape:showpageshadow="2"
     inkscape:pageopacity="0.0"
     inkscape:pagecheckerboard="0"
     inkscape:deskcolor="#d1d1d1"
     inkscape:document-units="mm"
     inkscape:zoom="11.588216"
     inkscape:cx="35.035593"
     inkscape:cy="32.921376"
     inkscape:window-width="1920"
     inkscape:window-height="1009"
     inkscape:window-x="-8"
     inkscape:window-y="-8"
     inkscape:window-maximized="1"
     inkscape:current-layer="layer1"
     showgrid="false" /><defs
     id="defs1" /><g
     inkscape:label="Capa 1"
     inkscape:groupmode="layer"
     id="layer1"
     transform="translate(-78.980036,-139.87797)"><circle
       style="fill:#f1f2f6;fill-opacity:1;stroke-width:0.272664"
       id="path3"
       cx="84.980042"
       cy="145.87796"
       inkscape:export-filename="question.svg"
       inkscape:export-xdpi="96"
       inkscape:export-ydpi="96"
       r="6" /><path
       d="m 84.25727,148.54008 -0.10583,-0.84666 q -0.086,-0.0331 -0.16206,-0.0794 -0.0761,-0.0463 -0.14883,-0.0992 l -0.78713,0.33073 -0.727605,-1.25677 0.681305,-0.51594 q -0.007,-0.0463 -0.007,-0.0893 v -0.1786 q 0,-0.043 0.007,-0.0893 l -0.681305,-0.51594 0.727605,-1.25677 0.78713,0.33073 q 0.0728,-0.0529 0.15214,-0.0992 0.0794,-0.0463 0.15875,-0.0794 l 0.10583,-0.84666 h 1.45521 l 0.10583,0.84666 q 0.086,0.0331 0.16206,0.0794 0.0761,0.0463 0.14883,0.0992 l 0.78714,-0.33073 0.7276,1.25677 -0.6813,0.51594 q 0.007,0.0463 0.007,0.0893 v 0.1786 q 0,0.043 -0.0132,0.0893 l 0.68131,0.51594 -0.72761,1.25677 -0.78052,-0.33073 q -0.0728,0.0529 -0.15214,0.0992 -0.0794,0.0463 -0.15875,0.0794 l -0.10583,0.84666 z m 0.46302,-0.52916 h 0.52256 l 0.0926,-0.70115 q 0.20505,-0.0529 0.38034,-0.15544 0.17529,-0.10253 0.32081,-0.24805 l 0.65484,0.2712 0.25797,-0.44979 -0.56886,-0.42995 q 0.0331,-0.0926 0.0463,-0.19513 0.0132,-0.10253 0.0132,-0.20836 0,-0.10583 -0.0132,-0.20836 -0.0132,-0.10253 -0.0463,-0.19513 l 0.56886,-0.42995 -0.25797,-0.44979 -0.65484,0.27781 q -0.14552,-0.15213 -0.32081,-0.25466 -0.17529,-0.10252 -0.38034,-0.15544 l -0.086,-0.70115 H 84.7269 l -0.0926,0.70115 q -0.20505,0.0529 -0.38033,0.15544 -0.17529,0.10253 -0.32081,0.24805 l -0.65485,-0.2712 -0.25796,0.44979 0.56885,0.42334 q -0.0331,0.0992 -0.0463,0.19843 -0.0132,0.0992 -0.0132,0.21167 0,0.10583 0.0132,0.20505 0.0132,0.0992 0.0463,0.19844 l -0.56885,0.42995 0.25796,0.44979 0.65485,-0.27781 q 0.14552,0.15213 0.32081,0.25466 0.17528,0.10252 0.38033,0.15544 z m 0.27782,-1.19063 q 0.38364,0 0.65484,-0.2712 0.2712,-0.27119 0.2712,-0.65484 0,-0.38365 -0.2712,-0.65484 -0.2712,-0.2712 -0.65484,-0.2712 -0.39026,0 -0.65815,0.2712 -0.2679,0.27119 -0.2679,0.65484 0,0.38365 0.2679,0.65484 0.26789,0.2712 0.65815,0.2712 z m -0.0132,-0.92604 z"
       id="path1"
       style="fill:#60668c;fill-opacity:1;stroke-width:0.00661458" /><rect
       style="fill:#8c6068;fill-opacity:1;stroke-width:0.264583"
       id="rect3"
       width="6"
       height="6"
       x="78.980034"
       y="139.9008" /></g></svg>
