<?xml version="1.0" encoding="UTF-8" standalone="no"?>
<!-- Created with Inkscape (http://www.inkscape.org/) -->

<svg
   width="11.624209mm"
   height="11.62421mm"
   viewBox="0 0 11.624209 11.62421"
   version="1.1"
   id="svg1"
   xml:space="preserve"
   xmlns:inkscape="http://www.inkscape.org/namespaces/inkscape"
   xmlns:sodipodi="http://sodipodi.sourceforge.net/DTD/sodipodi-0.dtd"
   xmlns="http://www.w3.org/2000/svg"
   xmlns:svg="http://www.w3.org/2000/svg"><sodipodi:namedview
     id="namedview1"
     pagecolor="#ffffff"
     bordercolor="#000000"
     borderopacity="0.25"
     inkscape:showpageshadow="2"
     inkscape:pageopacity="0.0"
     inkscape:pagecheckerboard="0"
     inkscape:deskcolor="#d1d1d1"
     inkscape:document-units="mm"
     inkscape:zoom="4.0970529"
     inkscape:cx="306.68386"
     inkscape:cy="591.52275"
     inkscape:window-width="1920"
     inkscape:window-height="1009"
     inkscape:window-x="-8"
     inkscape:window-y="-8"
     inkscape:window-maximized="1"
     inkscape:current-layer="layer1" /><defs
     id="defs1" /><g
     inkscape:label="Capa 1"
     inkscape:groupmode="layer"
     id="layer1"
     transform="translate(-78.980036,-139.87797)"><g
       id="g3"
       inkscape:export-filename="settings.svg"
       inkscape:export-xdpi="96"
       inkscape:export-ydpi="96"><circle
         style="fill:#d7d9e4;fill-opacity:1;stroke-width:0.00496063"
         id="path2"
         cx="84.792145"
         cy="145.69008"
         r="5.8121037"
         inkscape:export-filename="thumbs-up.png"
         inkscape:export-xdpi="96"
         inkscape:export-ydpi="96" /><path
         d="m 83.967676,148.30364 -0.105833,-0.84667 q -0.08599,-0.0331 -0.162057,-0.0794 -0.07607,-0.0463 -0.148828,-0.0992 l -0.787136,0.33072 -0.727604,-1.25677 0.681302,-0.51593 q -0.0066,-0.0463 -0.0066,-0.0893 v -0.17859 q 0,-0.043 0.0066,-0.0893 l -0.681302,-0.51594 0.727604,-1.25677 0.787136,0.33073 q 0.07276,-0.0529 0.152135,-0.0992 0.07937,-0.0463 0.15875,-0.0794 l 0.105833,-0.84667 h 1.455209 l 0.105833,0.84667 q 0.08599,0.0331 0.162057,0.0794 0.07607,0.0463 0.148829,0.0992 l 0.787135,-0.33073 0.727604,1.25677 -0.681302,0.51594 q 0.0066,0.0463 0.0066,0.0893 v 0.17859 q 0,0.043 -0.01323,0.0893 l 0.681307,0.51593 -0.727605,1.25677 -0.78052,-0.33072 q -0.07276,0.0529 -0.152136,0.0992 -0.07937,0.0463 -0.15875,0.0794 l -0.105833,0.84667 z m 0.463021,-0.52917 h 0.522552 l 0.0926,-0.70115 q 0.205052,-0.0529 0.380338,-0.15544 0.175287,-0.10253 0.320807,-0.24805 l 0.654844,0.2712 0.257969,-0.44979 -0.568854,-0.42995 q 0.03307,-0.0926 0.0463,-0.19513 0.01323,-0.10252 0.01323,-0.20836 0,-0.10583 -0.01323,-0.20836 -0.01323,-0.10252 -0.0463,-0.19513 l 0.568854,-0.42995 -0.257969,-0.44979 -0.654844,0.27782 q -0.14552,-0.15214 -0.320807,-0.25467 -0.175286,-0.10252 -0.380338,-0.15544 l -0.08599,-0.70114 h -0.522547 l -0.0926,0.70114 q -0.205052,0.0529 -0.380339,0.15544 -0.175286,0.10253 -0.320807,0.24805 l -0.654844,-0.2712 -0.257969,0.44979 0.568855,0.42334 q -0.03307,0.0992 -0.0463,0.19844 -0.01323,0.0992 -0.01323,0.21166 0,0.10584 0.01323,0.20505 0.01323,0.0992 0.0463,0.19844 l -0.568855,0.42995 0.257969,0.44979 0.654844,-0.27781 q 0.145521,0.15213 0.320807,0.25466 0.175287,0.10253 0.380339,0.15544 z m 0.277813,-1.19063 q 0.383646,0 0.654844,-0.27119 0.271197,-0.2712 0.271197,-0.65485 0,-0.38364 -0.271197,-0.65484 -0.271198,-0.2712 -0.654844,-0.2712 -0.390261,0 -0.658151,0.2712 -0.267891,0.2712 -0.267891,0.65484 0,0.38365 0.267891,0.65485 0.26789,0.27119 0.658151,0.27119 z m -0.01323,-0.92604 z"
         id="path1-0"
         style="fill:#60668c;fill-opacity:1;stroke-width:0.00661458" /></g></g></svg>
