<?xml version="1.0" encoding="UTF-8" standalone="no"?>
<svg
   height="24"
   viewBox="0 -960 960 960"
   width="24"
   version="1.1"
   id="svg1"
   sodipodi:docname="thumbsDown.svg"
   xml:space="preserve"
   inkscape:version="1.3 (0e150ed6c4, 2023-07-21)"
   inkscape:export-filename="thumbsDown.png"
   inkscape:export-xdpi="96"
   inkscape:export-ydpi="96"
   xmlns:inkscape="http://www.inkscape.org/namespaces/inkscape"
   xmlns:sodipodi="http://sodipodi.sourceforge.net/DTD/sodipodi-0.dtd"
   xmlns="http://www.w3.org/2000/svg"
   xmlns:svg="http://www.w3.org/2000/svg"><defs
     id="defs1" /><sodipodi:namedview
     id="namedview1"
     pagecolor="#ffffff"
     bordercolor="#000000"
     borderopacity="0.25"
     inkscape:showpageshadow="2"
     inkscape:pageopacity="0.0"
     inkscape:pagecheckerboard="0"
     inkscape:deskcolor="#d1d1d1"
     showgrid="false"
     inkscape:zoom="11.976621"
     inkscape:cx="28.847869"
     inkscape:cy="2.2961401"
     inkscape:window-width="1920"
     inkscape:window-height="1009"
     inkscape:window-x="-8"
     inkscape:window-y="-8"
     inkscape:window-maximized="1"
     inkscape:current-layer="svg1" /><path
     d="m 278.39754,-919.11446 439.99646,-1.76465 2.0855,519.99582 -278.87479,281.12071 -50.20013,-49.79907 q -7.02801,-6.97187 -11.5761,-18.95373 -4.54809,-11.98185 -4.59221,-22.98176 l -0.0562,-13.99989 43.30181,-174.17507 -257.99793,1.03473 q -31.99974,0.12834 -56.0958,-23.77522 -24.096061,-23.90355 -24.224399,-55.90329 l -0.320846,-79.99936 q -0.02807,-6.99994 1.939825,-15.0079 1.9679,-8.00796 3.93981,-15.01592 l 118.86805,-282.479 q 8.91972,-20.03594 29.8634,-34.12004 20.94369,-14.08411 43.9435,-14.17636 z m 360.31795,78.55555 -359.9971,1.44381 -118.87608,280.47902 0.32085,79.99935 359.9971,-1.4438 -53.11724,220.2148 173.30076,-174.69644 z m 1.62829,405.99674 -1.62829,-405.99674 z m 80.13572,33.67888 -0.32085,-79.99936 119.99904,-0.48127 -1.44381,-359.9971 -119.99903,0.48127 -0.32085,-79.99936 199.99839,-0.80211 2.0855,519.99581 z"
     id="path1"
     style="fill:#5b70a1;fill-opacity:1;stroke:none;stroke-width:1.05827;stroke-dasharray:none;stroke-opacity:1" /></svg>
