<?xml version="1.0" encoding="UTF-8" standalone="no"?>
<!-- Created with Inkscape (http://www.inkscape.org/) -->

<svg
   width="11.624209mm"
   height="11.62421mm"
   viewBox="0 0 11.624209 11.62421"
   version="1.1"
   id="svg1"
   xml:space="preserve"
   xmlns:inkscape="http://www.inkscape.org/namespaces/inkscape"
   xmlns:sodipodi="http://sodipodi.sourceforge.net/DTD/sodipodi-0.dtd"
   xmlns="http://www.w3.org/2000/svg"
   xmlns:svg="http://www.w3.org/2000/svg"><sodipodi:namedview
     id="namedview1"
     pagecolor="#ffffff"
     bordercolor="#000000"
     borderopacity="0.25"
     inkscape:showpageshadow="2"
     inkscape:pageopacity="0.0"
     inkscape:pagecheckerboard="0"
     inkscape:deskcolor="#d1d1d1"
     inkscape:document-units="mm"
     inkscape:zoom="4.0970529"
     inkscape:cx="306.68386"
     inkscape:cy="591.52275"
     inkscape:window-width="1920"
     inkscape:window-height="1009"
     inkscape:window-x="-8"
     inkscape:window-y="-8"
     inkscape:window-maximized="1"
     inkscape:current-layer="layer1" /><defs
     id="defs1" /><g
     inkscape:label="Capa 1"
     inkscape:groupmode="layer"
     id="layer1"
     transform="translate(-78.980036,-139.87797)"><g
       id="g2"
       transform="matrix(1,0,0,-1,0,291.38016)"
       inkscape:export-filename="thumbs-down.png"
       inkscape:export-xdpi="96"
       inkscape:export-ydpi="96"><circle
         style="fill:#d7d9e4;fill-opacity:1;stroke-width:0.00496063"
         id="path2"
         cx="84.792145"
         cy="145.69008"
         r="5.8121037"
         inkscape:export-filename="thumbs-up.png"
         inkscape:export-xdpi="96"
         inkscape:export-ydpi="96" /><path
         d="m 86.537962,147.787 h -2.910416 v -3.43958 l 1.852083,-1.85209 0.330729,0.33073 q 0.0463,0.0463 0.07607,0.12568 0.02977,0.0794 0.02977,0.15214 v 0.0926 l -0.291042,1.15094 h 1.706562 q 0.211667,0 0.370417,0.15875 0.15875,0.15875 0.15875,0.37041 v 0.52917 q 0,0.0463 -0.01323,0.0992 -0.01323,0.0529 -0.02646,0.0992 l -0.79375,1.86531 q -0.05953,0.13229 -0.198438,0.2249 -0.138906,0.0926 -0.291042,0.0926 z m -2.38125,-0.52917 h 2.38125 l 0.79375,-1.85208 v -0.52917 h -2.38125 l 0.357188,-1.4552 -1.150938,1.15093 z m 0,-2.68552 v 2.68552 z m -0.529166,-0.22489 v 0.52916 h -0.79375 v 2.38125 h 0.79375 v 0.52917 h -1.322917 v -3.43958 z"
         id="path1"
         style="fill:#60668c;fill-opacity:1;stroke:none;stroke-width:0.007;stroke-dasharray:none;stroke-opacity:1" /></g></g></svg>
