<?xml version="1.0" encoding="UTF-8" standalone="no"?>
<svg
   height="24"
   viewBox="0 -960 960 960"
   width="24"
   version="1.1"
   id="svg1"
   sodipodi:docname="thumbsUp.svg"
   xml:space="preserve"
   inkscape:version="1.3 (0e150ed6c4, 2023-07-21)"
   xmlns:inkscape="http://www.inkscape.org/namespaces/inkscape"
   xmlns:sodipodi="http://sodipodi.sourceforge.net/DTD/sodipodi-0.dtd"
   xmlns="http://www.w3.org/2000/svg"
   xmlns:svg="http://www.w3.org/2000/svg"><defs
     id="defs1" /><sodipodi:namedview
     id="namedview1"
     pagecolor="#ffffff"
     bordercolor="#000000"
     borderopacity="0.25"
     inkscape:showpageshadow="2"
     inkscape:pageopacity="0.0"
     inkscape:pagecheckerboard="0"
     inkscape:deskcolor="#d1d1d1"
     showgrid="false"
     inkscape:zoom="11.976621"
     inkscape:cx="28.847869"
     inkscape:cy="2.2961401"
     inkscape:window-width="1920"
     inkscape:window-height="1009"
     inkscape:window-x="-8"
     inkscape:window-y="-8"
     inkscape:window-maximized="1"
     inkscape:current-layer="svg1" /><path
     d="M720-120H280v-520l280-280 50 50q7 7 11.5 19t4.5 23v14l-44 174h258q32 0 56 24t24 56v80q0 7-2 15t-4 15L794-168q-9 20-30 34t-44 14Zm-360-80h360l120-280v-80H480l54-220-174 174v406Zm0-406v406-406Zm-80-34v80H160v360h120v80H80v-520h200Z"
     id="path1"
     style="stroke-width:1.0582676;stroke-dasharray:none;stroke:none;stroke-opacity:1;fill:#5b70a1;fill-opacity:1" /></svg>
